<svg width="1600" height="1000" viewBox="0 0 1600 1000" fill="none" xmlns="http://www.w3.org/2000/svg">
  <rect width="1600" height="1000" fill="#DDEAF4"/>
  <rect width="1600" height="1000" fill="url(#bg)"/>
  <g filter="url(#blur1)" opacity="0.45">
    <ellipse cx="1175" cy="153" rx="303" ry="153" fill="#93C5FD"/>
  </g>
  <g filter="url(#blur2)" opacity="0.4">
    <ellipse cx="252" cy="847" rx="426" ry="195" fill="#C4B5FD"/>
  </g>
  <g opacity="0.95">
    <rect x="0" y="708" width="1600" height="292" fill="url(#surface)"/>
    <rect x="0" y="686" width="1600" height="22" fill="#C8D8E8"/>
  </g>

  <g opacity="0.98">
    <rect x="126" y="180" width="412" height="315" rx="28" fill="#F8FCFF" stroke="#D7E3EE" stroke-width="8"/>
    <rect x="156" y="215" width="352" height="28" rx="14" fill="#E2E8F0"/>
    <rect x="156" y="272" width="142" height="170" rx="20" fill="#EFF6FF"/>
    <path d="M190 408L220 368L255 386L312 320" stroke="#0F172A" stroke-width="10" stroke-linecap="round" stroke-linejoin="round"/>
    <circle cx="312" cy="320" r="10" fill="#2563EB"/>
    <rect x="328" y="292" width="140" height="16" rx="8" fill="#CBD5E1"/>
    <rect x="328" y="330" width="123" height="16" rx="8" fill="#CBD5E1"/>
    <rect x="328" y="368" width="151" height="16" rx="8" fill="#CBD5E1"/>
    <rect x="328" y="414" width="110" height="26" rx="13" fill="#DBEAFE"/>
  </g>

  <g opacity="0.96">
    <rect x="1116" y="146" width="208" height="512" rx="104" fill="#FDFEFF" stroke="#CEDBE7" stroke-width="10"/>
    <rect x="1159" y="216" width="122" height="335" rx="61" fill="url(#tube)"/>
    <path d="M1159 389C1182 367 1203 356 1221 356C1240 356 1260 366 1281 385V502C1260 527 1240 539 1220 539C1199 539 1178 527 1159 501V389Z" fill="#1D4ED8" fill-opacity="0.25"/>
    <circle cx="1220" cy="168" r="31" fill="#FDFEFF" stroke="#CEDBE7" stroke-width="10"/>
  </g>

  <g opacity="0.98">
    <path d="M865 606L956 791C973 825 948 864 910 864H730C692 864 667 825 684 791L775 606C793 571 847 571 865 606Z" fill="#FCFEFF" stroke="#CEDBE7" stroke-width="10"/>
    <path d="M744 779C777 739 810 719 844 719C879 719 911 738 945 776C907 809 873 825 843 825C811 825 778 810 744 779Z" fill="#14B8A6" fill-opacity="0.24"/>
    <rect x="798" y="540" width="45" height="71" rx="18" fill="#FCFEFF" stroke="#CEDBE7" stroke-width="10"/>
  </g>

  <g opacity="0.98">
    <rect x="569" y="510" width="144" height="183" rx="24" fill="#FCFEFF" stroke="#D1DEE9" stroke-width="8"/>
    <rect x="593" y="469" width="97" height="57" rx="20" fill="#F8FCFF" stroke="#D1DEE9" stroke-width="8"/>
    <rect x="600" y="551" width="82" height="16" rx="8" fill="#E2E8F0"/>
    <rect x="600" y="586" width="60" height="16" rx="8" fill="#E2E8F0"/>
    <circle cx="641" cy="643" r="24" fill="#BFDBFE"/>
  </g>

  <g opacity="0.98">
    <rect x="958" y="520" width="120" height="137" rx="18" fill="#FCFEFF" stroke="#D1DEE9" stroke-width="8"/>
    <rect x="984" y="486" width="68" height="42" rx="16" fill="#FCFEFF" stroke="#D1DEE9" stroke-width="8"/>
    <rect x="982" y="560" width="72" height="13" rx="6.5" fill="#E2E8F0"/>
    <rect x="982" y="588" width="52" height="13" rx="6.5" fill="#E2E8F0"/>
    <circle cx="1018" cy="630" r="16" fill="#93C5FD"/>
  </g>

  <g opacity="0.32">
    <circle cx="176" cy="118" r="34" fill="#BFDBFE"/>
    <circle cx="260" cy="118" r="12" fill="#93C5FD"/>
    <circle cx="222" cy="77" r="10" fill="#93C5FD"/>
  </g>

  <defs>
    <filter id="blur1" x="672" y="-200" width="1006" height="706" filterUnits="userSpaceOnUse" color-interpolation-filters="sRGB">
      <feGaussianBlur stdDeviation="100"/>
    </filter>
    <filter id="blur2" x="-374" y="452" width="1252" height="790" filterUnits="userSpaceOnUse" color-interpolation-filters="sRGB">
      <feGaussianBlur stdDeviation="100"/>
    </filter>
    <linearGradient id="bg" x1="800" y1="0" x2="800" y2="1000" gradientUnits="userSpaceOnUse">
      <stop stop-color="#EEF5FB"/>
      <stop offset="1" stop-color="#DCE8F2"/>
    </linearGradient>
    <linearGradient id="surface" x1="800" y1="686" x2="800" y2="1000" gradientUnits="userSpaceOnUse">
      <stop stop-color="#E7EFF6"/>
      <stop offset="1" stop-color="#D4E0EB"/>
    </linearGradient>
    <linearGradient id="tube" x1="1220" y1="216" x2="1220" y2="551" gradientUnits="userSpaceOnUse">
      <stop stop-color="#DBEAFE"/>
      <stop offset="1" stop-color="#BFDBFE"/>
    </linearGradient>
  </defs>
</svg>
